<svg width="9" height="14" viewBox="0 0 9 14" fill="none" xmlns="http://www.w3.org/2000/svg">
<path id="Vector" d="M5.0175 13.4751C4.20716 13.4861 3.39683 13.3218 2.66313 12.9824C1.97319 12.6647 1.40386 12.1392 1.00958 11.4931C0.604411 10.8251 0.407267 9.99281 0.407267 8.99632C0.396377 8.18599 0.604411 7.38664 1.00958 6.68581C1.42574 5.974 2.02795 5.38268 2.75076 4.9885C3.51723 4.56145 4.43707 4.35332 5.52119 4.35332C5.57594 4.35332 5.65258 4.35332 5.7511 4.36431C5.84972 4.3752 5.95923 4.3752 6.09062 4.3862V0.925827C6.09062 0.84919 6.12349 0.805426 6.20013 0.805426H8.42301C8.47776 0.794434 8.52163 0.838198 8.53252 0.882063C8.53252 0.892953 8.53252 0.903945 8.53252 0.903945V11.3288C8.53252 11.526 8.54352 11.7449 8.55451 11.9859C8.57639 12.2158 8.58728 12.4348 8.59827 12.621C8.59827 12.6976 8.5654 12.7633 8.48876 12.7962C7.91933 13.0371 7.31702 13.2123 6.70382 13.3218C6.14538 13.4203 5.58693 13.4751 5.0175 13.4751ZM6.09062 11.2851V6.46679C5.99211 6.44491 5.89348 6.42303 5.79496 6.41204C5.67446 6.40105 5.55406 6.39016 5.43356 6.39016C5.00651 6.39016 4.57946 6.47779 4.19617 6.67482C3.82387 6.86097 3.50634 7.13475 3.26543 7.48516C3.02443 7.83557 2.90403 8.30649 2.90403 8.87592C2.89303 9.25921 2.95878 9.64239 3.09017 10.0038C3.19968 10.2995 3.36395 10.5622 3.58297 10.7813C3.791 10.9784 4.0429 11.1317 4.32757 11.2193C4.62322 11.3178 4.92987 11.3617 5.23652 11.3617C5.40068 11.3617 5.55406 11.3507 5.69645 11.3397C5.83873 11.3507 5.95923 11.3288 6.09062 11.2851Z" fill="#FF61F6"/>
</svg>
