<svg width="12" height="13" viewBox="0 0 12 13" fill="none" xmlns="http://www.w3.org/2000/svg">
<path id="Vector" d="M10.9583 0.922567L7.67309 6.34303L11.1773 12.092C11.1992 12.1358 11.2101 12.1797 11.1992 12.2234C11.1882 12.2673 11.1445 12.2344 11.0787 12.2453H8.57106C8.3959 12.2453 8.2754 12.2344 8.19876 12.1249C7.96875 11.665 7.72785 11.2159 7.49794 10.756C7.26793 10.3071 7.01613 9.84716 6.75324 9.37635C6.49046 8.90543 6.22768 8.43452 5.96489 7.95271H5.94301C5.713 8.42363 5.4611 8.89444 5.20931 9.36536C4.95741 9.83627 4.70552 10.3071 4.46462 10.767C4.21283 11.2269 3.96093 11.6979 3.70904 12.1468C3.66527 12.2563 3.57765 12.2673 3.45725 12.2673H1.04811C1.00425 12.2673 0.971477 12.2892 0.971477 12.2344C0.960485 12.1905 0.971477 12.1468 0.993359 12.1139L4.39898 6.52918L1.08099 0.911574C1.04812 0.867811 1.03712 0.823946 1.059 0.802064C1.08099 0.769191 1.12475 0.758301 1.16851 0.758301H3.65428C3.70903 0.758301 3.76379 0.76919 3.80766 0.780182C3.85142 0.802064 3.88429 0.834938 3.91717 0.878702C4.1252 1.34962 4.3661 1.82053 4.61799 2.29135C4.88078 2.76226 5.13268 3.22219 5.40635 3.68211C5.66924 4.14203 5.91013 4.60185 6.14004 5.07277H6.16193C6.39195 4.59096 6.63284 4.12005 6.87375 3.66012C7.11465 3.2002 7.36655 2.74028 7.61834 2.28035C7.87024 1.82053 8.11113 1.34962 8.35204 0.900684C8.36303 0.856819 8.38491 0.813056 8.41779 0.791174C8.46155 0.769191 8.50542 0.758301 8.56017 0.769191H10.8707C10.9254 0.758301 10.9802 0.791175 10.9912 0.84593C11.0021 0.85682 10.9802 0.900686 10.9583 0.922567Z" fill="#FF61F6"/>
</svg>
