<svg width="194" height="44" viewBox="0 0 194 44" fill="none" xmlns="http://www.w3.org/2000/svg">
<path id="Vector" d="M14.2893 29.1057C20.7911 29.1057 23.3273 25.1353 23.3273 18.3424C23.3273 11.5508 20.3613 6.81541 14.4797 6.81541H7.88789V29.1057H14.2893ZM0.953125 0.885026H15.3408C24.4734 0.885026 30.355 8.25108 30.355 18.3424C30.355 23.8902 28.4895 28.7704 24.9033 31.7836C22.3686 33.8869 19.0688 35.0834 14.7663 35.0834H0.953125V0.885026ZM50.161 22.8401C50.161 18.0558 47.9144 14.8033 43.9456 14.8033C39.928 14.8033 37.7272 18.0558 37.7272 22.8401C37.7272 27.6227 39.928 30.8264 43.9456 30.8264C47.9144 30.8264 50.161 27.6227 50.161 22.8401ZM31.1293 22.8401C31.1293 15.5212 36.3418 9.87731 43.9456 9.87731C51.548 9.87731 56.7605 15.5212 56.7605 22.8401C56.7605 30.1558 51.548 35.8012 43.9456 35.8012C36.3402 35.8012 31.1277 30.1574 31.1277 22.8401M57.835 22.8401C57.835 15.5212 62.6176 9.87731 70.0767 9.87731C76.4384 9.87731 80.3585 13.5612 81.2196 18.8697H74.8594C74.4296 16.7176 72.7561 15.0899 70.3648 15.0899C66.4432 15.0899 64.4359 18.1046 64.4359 22.8401C64.4359 27.4794 66.2999 30.5887 70.2687 30.5887C72.8993 30.5887 74.7649 29.2017 75.1947 26.4279H81.4589C81.0291 31.6404 76.9628 35.8012 70.4121 35.8012C62.6665 35.8012 57.835 30.1574 57.835 22.8401ZM98.3919 35.0848V32.2149H98.2486C96.5751 34.463 94.6624 35.7539 91.2194 35.7539C85.7676 35.7539 82.7071 32.2637 82.7071 26.9049V10.5465H89.1618V25.8045C89.1618 28.6744 90.4543 30.2534 93.2266 30.2534C96.2871 30.2534 98.1526 27.958 98.1526 24.7056V10.5465H104.656V35.0848H98.3919ZM136.341 35.0848H142.843V10.5465H136.341V35.0848ZM136.341 7.11713H142.843V1.03588H136.341V7.11713ZM162.708 21.7381C162.708 18.1518 160.795 15.0913 156.874 15.0913C153.574 15.0913 151.375 17.6732 151.375 21.7868C151.375 25.9477 153.574 28.3879 156.923 28.3879C161.035 28.3879 162.708 25.3746 162.708 21.7396M145.541 35.8012H151.994C152.521 37.3314 153.907 38.5278 156.92 38.5278C160.602 38.5278 162.372 36.7583 162.372 33.4098V30.7305H162.228C160.792 32.3567 158.929 33.6004 155.819 33.6004C150.369 33.6004 145.013 29.2962 145.013 21.8829C145.013 14.564 149.412 9.87731 155.629 9.87731C158.689 9.87731 160.936 11.0723 162.419 13.1299H162.515V10.5465H168.779V33.2178C168.779 36.6623 167.678 39.0049 165.862 40.6799C163.804 42.5927 160.649 43.4538 157.016 43.4538C150.321 43.4538 146.208 40.5839 145.539 35.8012M177.93 13.895H178.073C179.747 11.2644 181.995 9.87731 185.342 9.87731C190.411 9.87731 193.805 13.7029 193.805 19.0602V35.0834H187.302V20.0173C187.302 17.3867 185.771 15.5212 183.046 15.5212C180.177 15.5212 178.073 17.8165 178.073 21.165V35.0834H171.569V10.5465H177.93V13.895ZM121.521 14.4681C116.451 13.3706 114.06 12.5568 114.06 9.78137C114.06 7.34274 116.498 5.76372 120.229 5.76372C123.633 5.76372 126.235 7.36105 126.768 10.5465H133.437C132.76 3.9058 127.832 0.263184 120.276 0.263184C112.675 0.263184 107.174 3.75494 107.174 10.4992C107.174 17.626 112.769 19.2523 118.89 20.6392C124.102 21.8357 127.355 22.5047 127.355 25.8517C127.355 29.0097 124.246 30.2534 120.708 30.2534C115.831 30.2534 113.487 28.6271 113.008 24.5135H106.218C106.458 31.7363 111.718 35.8485 120.994 35.8485C128.694 35.8485 134.288 31.9756 134.288 25.0394C134.288 17.6732 128.55 15.9998 121.521 14.4681Z" fill="#050038"/>
</svg>
