<svg width="90" height="54" viewBox="0 0 90 54" fill="none" xmlns="http://www.w3.org/2000/svg">
<path id="Vector" d="M5.10882 9.91483V13.6566H0.90625V18.5358H5.10882V38.1501C5.10882 39.6383 6.63128 40.8306 8.54565 40.8306C10.46 40.8306 12.0187 39.6474 12.0187 38.1592V18.5448H17.605V13.6657H12.0187V9.91483C12.0187 5.40151 15.5158 4.56906 20.3032 5.64554V0.766301C13.5622 -0.755397 5.10882 -0.0479142 5.10882 9.91483ZM26.6342 18.5448H26.4895V13.6657H20.8971V38.1653C20.8971 39.6535 22.4045 40.8459 24.334 40.8459C26.2634 40.8459 27.7979 39.6535 27.7979 38.1653V25.8302C27.7979 20.0117 31.5453 18.5327 36.0824 18.5327V13.0436C31.9793 13.0222 28.1356 14.3914 26.6342 18.5448ZM74.9307 13.0558C68.268 13.0558 62.8716 16.395 62.8716 22.9575C62.8716 26.4522 64.4061 29.0321 66.8511 30.6819C66.6702 30.8008 66.4953 30.9227 66.3235 31.0509C63.2937 33.3166 62.9681 37.223 65.7446 39.3547C64.3851 40.5744 62.4585 42.7579 62.4585 45.8013C62.4585 50.6317 66.9204 53.7514 74.9276 53.7514C82.9348 53.7514 89.0488 49.9547 89.0488 44.1088C89.0488 38.2629 85.0331 35.9667 77.7072 35.9667H72.9167C69.5613 35.9667 69.8477 33.6216 70.9541 32.6122C71.0114 32.5604 71.0718 32.5115 71.1381 32.4597C72.385 32.7248 73.6565 32.8537 74.9307 32.844C81.5963 32.844 86.9897 29.4895 86.9897 22.9483C87.0047 21.5939 86.7409 20.2511 86.2148 19.0053C87.2353 18.723 88.2864 18.5704 89.3442 18.551V13.6718C86.3807 13.6718 84.4693 13.873 82.4435 14.8702C80.3904 13.6474 77.7766 13.0405 74.9307 13.0405V13.0558ZM71.2677 40.855H77.7012C80.3421 40.855 82.142 41.6845 82.142 44.1088C82.142 47.3657 79.3804 48.8661 74.9065 48.8661C68.0389 48.8508 68.4489 43.1421 71.2677 40.8397V40.855ZM74.9307 27.9648C72.0817 27.9648 69.7664 26.8457 69.7664 22.9545C69.7664 19.0633 72.0817 17.9442 74.9307 17.9442C77.7796 17.9442 80.0979 19.0602 80.0979 22.9545C80.0979 26.8486 77.7856 27.9648 74.9307 27.9648ZM48.6209 13.0405C41.1321 13.0405 36.5618 17.7276 36.5618 26.9402C36.5618 36.1527 41.1382 40.8397 48.6209 40.8397C56.1035 40.8397 60.6799 36.1527 60.6799 26.9402C60.6799 17.7276 56.1125 13.0405 48.6209 13.0405ZM48.6209 35.9514C45.7689 35.9514 43.4565 34.7804 43.4565 26.9402C43.4565 19.0999 45.784 17.935 48.6209 17.935C51.4577 17.935 53.7851 19.1029 53.7851 26.9402C53.7851 34.7774 51.4728 35.9514 48.6209 35.9514Z" fill="#050038"/>
</svg>
